<svg xmlns="http://www.w3.org/2000/svg" viewBox="0 0 64 64" width="64" height="64">
  <defs>
    <linearGradient id="orangeGradient" x1="0%" y1="0%" x2="100%" y2="100%">
      <stop offset="0%" style="stop-color:#FF8C00;stop-opacity:1" />
      <stop offset="50%" style="stop-color:#FF6500;stop-opacity:1" />
      <stop offset="100%" style="stop-color:#FF4500;stop-opacity:1" />
    </linearGradient>
  </defs>
  
  <!-- Background circle -->
  <circle cx="32" cy="32" r="30" fill="url(#orangeGradient)" stroke="#FF4500" stroke-width="2"/>
  
  <!-- Voice/Sound waves icon -->
  <g fill="white" opacity="0.9">
    <!-- Microphone -->
    <rect x="28" y="20" width="8" height="12" rx="4" fill="white"/>
    <rect x="30" y="32" width="4" height="8" fill="white"/>
    <path d="M26 36 L38 36" stroke="white" stroke-width="2" stroke-linecap="round"/>
    
    <!-- Sound waves -->
    <path d="M42 24 Q46 28 46 32 Q46 36 42 40" stroke="white" stroke-width="2" fill="none" stroke-linecap="round"/>
    <path d="M18 24 Q22 28 22 32 Q22 36 18 40" stroke="white" stroke-width="2" fill="none" stroke-linecap="round"/>
    <path d="M44 20 Q50 26 50 32 Q50 38 44 44" stroke="white" stroke-width="1.5" fill="none" stroke-linecap="round"/>
    <path d="M20 20 Q14 26 14 32 Q14 38 20 44" stroke="white" stroke-width="1.5" fill="none" stroke-linecap="round"/>
  </g>
</svg>